<svg height="512pt" viewBox="0 0 512.00164 512" width="512pt" xmlns="http://www.w3.org/2000/svg"><path d="m195.527344 493.800781c-24.878906 24.136719-64.929688 24.289063-89.984375.332031-17.136719-16.390624-23.292969-39.789062-18.476563-61.214843 1.082032-4.816407-3.164062-9.0625-7.980468-7.980469-21.425782 4.816406-44.824219-1.339844-61.214844-18.476562-23.957032-25.054688-23.804688-65.105469.332031-89.984376 25.269531-26.050781 66.886719-26.292968 92.464844-.714843l.078125.078125c4.132812 4.140625 10.902344 4.144531 15.039062.007812l190.0625-190.0625c4.136719-4.136718 4.132813-10.90625-.007812-15.039062l-.078125-.078125c-25.578125-25.582031-25.339844-67.195313.714843-92.46875 24.878907-24.132813 64.929688-24.285157 89.984376-.328125 17.136718 16.390625 23.292968 39.789062 18.476562 61.214844-1.082031 4.816406 3.164062 9.0625 7.980469 7.980468 21.425781-4.816406 44.824219 1.339844 61.210937 18.476563 23.960938 25.050781 23.808594 65.101562-.328125 89.984375-25.269531 26.050781-66.886719 26.292968-92.464843.710937l-.078126-.078125c-4.152343-4.15625-10.886718-4.160156-15.039062-.003906l-190.179688 190.179688c-4.074218 4.070312-4.070312 10.734374.003907 14.804687l.195312.195313c25.582031 25.582031 25.339844 67.195312-.710937 92.464843zm0 0" fill="#f06292"/><path d="m196.238281 401.335938-.195312-.195313c-4.074219-4.070313-4.078125-10.730469-.003907-14.804687l190.179688-190.179688c4.152344-4.152344 10.886719-4.148438 15.039062.007812l.078126.078126c25.578124 25.578124 67.195312 25.339843 92.464843-.714844 24.136719-24.878906 24.289063-64.929688.328125-89.980469-4.339844-4.539063-9.171875-8.300781-14.332031-11.296875 14.238281 24.542969 11.070313 56.664062-9.453125 77.820312-25.269531 26.054688-66.886719 26.292969-92.464844.714844l-.078125-.078125c-4.152343-4.15625-10.886719-4.160156-15.039062-.007812l-190.179688 190.179687c-4.074219 4.074219-4.070312 10.734375.003907 14.804688l.195312.195312c25.578125 25.582032 25.339844 67.195313-.710938 92.464844-21.15625 20.523438-53.277343 23.695312-77.824218 9.457031 2.996094 5.15625 6.757812 9.992188 11.296875 14.332031 25.050781 23.957032 65.101562 23.804688 89.984375-.332031 26.050781-25.269531 26.292968-66.882812.710937-92.464843zm0 0" fill="#ec407a"/><path d="m493.800781 316.476562c24.136719 24.878907 24.285157 64.929688.328125 89.984376-16.386718 17.136718-39.785156 23.292968-61.210937 18.476562-4.816407-1.082031-9.0625 3.164062-7.980469 7.980469 4.8125 21.425781-1.339844 44.824219-18.480469 61.214843-25.050781 23.957032-65.101562 23.804688-89.984375-.332031-26.050781-25.269531-26.289062-66.886719-.710937-92.464843l.078125-.078126c4.140625-4.132812 4.144531-10.902343.007812-15.039062l-190.0625-190.0625c-4.140625-4.136719-10.90625-4.132812-15.039062.007812l-.078125.078126c-25.582031 25.578124-67.199219 25.339843-92.46875-.714844-24.136719-24.878906-24.285157-64.929688-.328125-89.980469 16.386718-17.140625 39.789062-23.292969 61.214844-18.480469 4.816406 1.082032 9.0625-3.164062 7.980468-7.976562-4.816406-21.429688 1.339844-44.828125 18.476563-61.214844 25.050781-23.957031 65.101562-23.808594 89.984375.328125 26.050781 25.269531 26.289062 66.886719.710937 92.464844l-.078125.078125c-4.15625 4.152344-4.160156 10.886718-.003906 15.039062l190.179688 190.179688c4.070312 4.074218 10.734374 4.070312 14.804687-.003906l.191406-.195313c25.582031-25.582031 67.199219-25.339844 92.46875.710937zm0 0" fill="#26c6da"/><path d="m401.335938 315.765625-.195313.195313c-4.070313 4.074218-10.730469 4.078124-14.804687.003906l-190.179688-190.179688c-4.152344-4.152344-4.152344-10.890625.007812-15.039062l.078126-.078125c25.578124-25.578125 25.339843-67.195313-.714844-92.46875-24.878906-24.132813-64.929688-24.285157-89.984375-.324219-4.535157 4.339844-8.296875 9.171875-11.296875 14.332031 24.546875-14.238281 56.667968-11.070312 77.824218 9.453125 26.054688 25.269532 26.292969 66.886719.714844 92.464844l-.078125.078125c-4.160156 4.152344-4.160156 10.886719-.007812 15.039063l190.179687 190.179687c4.074219 4.074219 10.734375 4.070313 14.804688-.003906l.195312-.195313c25.578125-25.582031 67.195313-25.339844 92.464844.710938 20.523438 21.15625 23.691406 53.277344 9.453125 77.824218 5.160156-2.996093 9.992187-6.757812 14.332031-11.296874 23.960938-25.050782 23.808594-65.101563-.328125-89.984376-25.269531-26.050781-66.886719-26.292968-92.464843-.710937zm0 0" fill="#00bcd4"/></svg>