<?xml version="1.0" encoding="UTF-8" standalone="no"?>
<!DOCTYPE svg PUBLIC "-//W3C//DTD SVG 1.1//EN" "http://www.w3.org/Graphics/SVG/1.1/DTD/svg11.dtd">
<svg version="1.1" xmlns="http://www.w3.org/2000/svg" xmlns:xlink="http://www.w3.org/1999/xlink" preserveAspectRatio="xMidYMid meet" viewBox="0 0 448 349" width="448" height="349"><defs><path d="M194.97 224.9C196.26 223.61 202.74 217.13 214.4 205.47L282.81 137.06C294.47 125.4 300.95 118.92 302.24 117.63C310.92 108.95 323.15 104.65 335.31 106.34C344.63 107.63 354.44 104.46 361.32 96.83C371.48 85.54 371.21 67.76 360.73 56.76C354.77 50.51 346.77 47.47 338.82 47.62C335.45 47.69 332.79 45.03 332.85 41.66C333.03 32.33 328.83 22.94 320.19 16.86C310.01 9.68 295.99 9.86 285.97 17.26C276.87 23.99 272.91 34.48 274.07 44.5C275.41 56.08 270.82 67.57 262.58 75.81C261.21 77.18 254.37 84.01 242.07 96.32L173.66 164.73C161.35 177.03 154.52 183.87 153.15 185.24C144.91 193.48 133.42 198.07 121.84 196.73C111.82 195.57 101.33 199.53 94.6 208.63C87.2 218.65 87.02 232.67 94.2 242.85C100.28 251.49 109.67 255.69 119 255.51C122.37 255.45 125.03 258.11 124.96 261.48C124.81 269.43 127.85 277.43 134.1 283.39C145.1 293.87 162.88 294.14 174.17 283.97C181.8 277.1 184.97 267.29 183.68 257.97C181.99 245.81 186.29 233.58 194.97 224.9Z" id="c1sfq9ZN1a"></path><path d="M373.65 167.44C370.68 157.96 361.9 151.51 351.96 151.51C326.5 151.51 122.86 151.51 97.4 151.51C87.47 151.51 78.68 157.96 75.71 167.44C72.82 176.66 58.36 222.74 32.34 305.69L417.02 305.69C393.89 231.96 379.44 185.87 373.65 167.44Z" id="b2UtSuT7z7"></path><path d="M18.94 291.43C14.96 291.43 11.73 294.66 11.73 298.64C11.73 301.48 11.73 324.16 11.73 327C11.73 330.98 14.96 334.21 18.94 334.21C59.95 334.21 388.05 334.21 429.06 334.21C433.04 334.21 436.27 330.98 436.27 327C436.27 324.16 436.27 301.48 436.27 298.64C436.27 294.66 433.04 291.43 429.06 291.43C347.04 291.43 59.95 291.43 18.94 291.43Z" id="b1aw14eyWC"></path><path d="M258.25 246.11C255.9 229.64 243.3 216.41 227.94 214.24C206.92 211.26 189.1 228.52 189.1 250.62C189.1 253.24 189.36 255.8 189.83 258.27C191.76 268.22 200.01 275.41 209.43 275.6C212.32 275.65 235.49 276.12 238.39 276.18C247.36 276.36 255.54 270.2 257.68 260.87C258.74 256.25 258.98 251.27 258.25 246.11Z" id="e1lBStAtUY"></path><path d="M228.9 184.53C228.22 195.35 234.2 206.72 242.41 207.48C250.61 208.24 257.94 198.1 258.62 187.28C259.3 176.46 253.2 167.07 244.99 166.31C236.79 165.55 229.58 173.71 228.9 184.53Z" id="d13nhO24f1"></path><path d="M221.35 185.13C222 195.98 216 207.1 207.79 207.51C199.59 207.92 192.28 197.46 191.63 186.61C190.97 175.77 197.09 166.64 205.3 166.23C213.51 165.82 220.69 174.28 221.35 185.13Z" id="i1EOXRzRiZ"></path><path d="M258 206.2C253.41 214.8 253.86 226.51 260.03 230.39C266.2 234.28 275.76 228.87 280.34 220.26C284.92 211.66 283.64 201.54 277.47 197.65C271.29 193.77 262.58 197.59 258 206.2Z" id="a1LLIIG30"></path><path d="M190.82 204.84C195.4 213.63 194.96 225.32 188.79 228.96C182.62 232.59 173.06 226.8 168.47 218.01C163.89 209.22 165.18 199.15 171.35 195.52C177.52 191.88 186.23 196.05 190.82 204.84Z" id="c9mUf2m70"></path></defs><g><g><g><use xlink:href="#c1sfq9ZN1a" opacity="1" fill="#ededed" fill-opacity="1"></use><g><use xlink:href="#c1sfq9ZN1a" opacity="1" fill-opacity="0" stroke="#000000" stroke-width="1" stroke-opacity="0"></use></g></g><g><use xlink:href="#b2UtSuT7z7" opacity="1" fill="#26c6da" fill-opacity="1"></use><g><use xlink:href="#b2UtSuT7z7" opacity="1" fill-opacity="0" stroke="#000000" stroke-width="1" stroke-opacity="0"></use></g></g><g><use xlink:href="#b1aw14eyWC" opacity="1" fill="#0095a8" fill-opacity="1"></use><g><use xlink:href="#b1aw14eyWC" opacity="1" fill-opacity="0" stroke="#000000" stroke-width="1" stroke-opacity="0"></use></g></g><g><use xlink:href="#e1lBStAtUY" opacity="1" fill="#c63f17" fill-opacity="1"></use><g><use xlink:href="#e1lBStAtUY" opacity="1" fill-opacity="0" stroke="#000000" stroke-width="1" stroke-opacity="0"></use></g></g><g><use xlink:href="#d13nhO24f1" opacity="1" fill="#c63f17" fill-opacity="1"></use><g><use xlink:href="#d13nhO24f1" opacity="1" fill-opacity="0" stroke="#000000" stroke-width="1" stroke-opacity="0"></use></g></g><g><use xlink:href="#i1EOXRzRiZ" opacity="1" fill="#c63f17" fill-opacity="1"></use><g><use xlink:href="#i1EOXRzRiZ" opacity="1" fill-opacity="0" stroke="#000000" stroke-width="1" stroke-opacity="0"></use></g></g><g><use xlink:href="#a1LLIIG30" opacity="1" fill="#c63f17" fill-opacity="1"></use><g><use xlink:href="#a1LLIIG30" opacity="1" fill-opacity="0" stroke="#000000" stroke-width="1" stroke-opacity="0"></use></g></g><g><use xlink:href="#c9mUf2m70" opacity="1" fill="#c63f17" fill-opacity="1"></use><g><use xlink:href="#c9mUf2m70" opacity="1" fill-opacity="0" stroke="#000000" stroke-width="1" stroke-opacity="0"></use></g></g></g></g></svg>